<?xml version="1.0" encoding="iso-8859-1"?>
<!-- Generator: Adobe Illustrator 19.0.0, SVG Export Plug-In . SVG Version: 6.00 Build 0)  -->
<svg version="1.1" id="Layer_1" xmlns="http://www.w3.org/2000/svg" xmlns:xlink="http://www.w3.org/1999/xlink" x="0px" y="0px"
	 viewBox="0 0 512 512" style="enable-background:new 0 0 512 512;" xml:space="preserve">
<path style="fill:#A3AAAF;" d="M166.841,273.655L128,270.124l7.945-34.428l-34.428-7.945l8.828-36.193
	c-26.483-15.007-56.497-22.952-87.393-22.952h-4.414l148.303,246.29v-99.752V273.655z"/>
<path style="fill:#E0E0E0;" d="M361.048,105.931v183.614c31.779,37.959,75.917,71.503,132.414,72.386L361.048,105.931z"/>
<path style="fill:#A3AAAF;" d="M396.359,256c-3.531,0-6.179-1.766-7.945-5.297l-35.31-70.621c-1.766-4.414,0-9.71,3.531-11.476
	c4.414-1.766,9.71,0,11.476,3.531l35.31,70.621c1.766,4.414,0,9.71-3.531,11.476C399.007,256,398.124,256,396.359,256"/>
<path style="fill:#DD342E;" d="M263.945,512L263.945,512c-53.848,0-97.103-43.255-97.103-97.103V97.103
	C166.841,43.255,210.097,0,263.945,0s97.103,43.255,97.103,97.103v317.793C361.048,468.745,317.793,512,263.945,512"/>
<g>
	<path style="fill:#E0E0E0;" d="M308.083,432.552c0-24.717-19.421-44.138-44.138-44.138s-44.138,19.421-44.138,44.138
		s19.421,44.138,44.138,44.138S308.083,457.269,308.083,432.552"/>
	<path style="fill:#E0E0E0;" d="M308.083,79.448c0-24.717-19.421-44.138-44.138-44.138s-44.138,19.421-44.138,44.138
		s19.421,44.138,44.138,44.138S308.083,104.166,308.083,79.448"/>
</g>
<path style="fill:#FFFFFF;" d="M325.738,229.517h-35.31v-35.31h-52.966v35.31h-35.31v52.966h35.31v35.31h52.966v-35.31h35.31
	V229.517z"/>
<g>
</g>
<g>
</g>
<g>
</g>
<g>
</g>
<g>
</g>
<g>
</g>
<g>
</g>
<g>
</g>
<g>
</g>
<g>
</g>
<g>
</g>
<g>
</g>
<g>
</g>
<g>
</g>
<g>
</g>
</svg>
